<svg width="170" height="267" viewBox="0 0 170 267" fill="none" xmlns="http://www.w3.org/2000/svg">
<path d="M55.2065 121.362H5.46332C2.44601 121.362 0 123.808 0 126.825V140.175C0 143.192 2.44601 145.638 5.46332 145.638H55.2065C58.2238 145.638 60.6698 143.192 60.6698 140.175V126.825C60.6698 123.808 58.2238 121.362 55.2065 121.362Z" fill="white"/>
<path d="M69.5561 180.283L34.3824 215.456C32.2488 217.59 32.2488 221.049 34.3824 223.183L43.8217 232.622C45.9552 234.756 49.4144 234.756 51.548 232.622L86.7217 197.448C88.8553 195.315 88.8553 191.856 86.7217 189.722L77.2824 180.283C75.1489 178.149 71.6897 178.149 69.5561 180.283Z" fill="white"/>
<path d="M140.175 206.33H126.825C123.808 206.33 121.362 208.776 121.362 211.794V261.537C121.362 264.554 123.808 267 126.825 267H140.175C143.192 267 145.638 264.554 145.638 261.537V211.794C145.638 208.776 143.192 206.33 140.175 206.33Z" fill="white"/>
<path d="M140.175 0H126.825C123.808 0 121.362 2.44601 121.362 5.46332V55.2065C121.362 58.2238 123.808 60.6698 126.825 60.6698H140.175C143.192 60.6698 145.638 58.2238 145.638 55.2065V5.46332C145.638 2.44601 143.192 0 140.175 0Z" fill="white"/>
<path d="M43.8252 34.3802L34.3859 43.8195C32.2524 45.953 32.2524 49.4122 34.3859 51.5458L69.5597 86.7195C71.6933 88.8531 75.1524 88.8531 77.286 86.7195L86.7253 77.2802C88.8588 75.1467 88.8588 71.6875 86.7253 69.5539L51.5515 34.3802C49.418 32.2466 45.9588 32.2466 43.8252 34.3802Z" fill="white"/>
<path d="M162.618 121.362H140.787C136.764 121.362 133.503 124.623 133.503 128.646V138.353C133.503 142.377 136.764 145.638 140.787 145.638H162.618C166.641 145.638 169.903 142.377 169.903 138.353V128.646C169.903 124.623 166.641 121.362 162.618 121.362Z" fill="white"/>
<path d="M84.9513 133.503C84.9513 160.314 106.687 182.049 133.497 182.049C137.69 182.049 141.754 181.52 145.632 180.52V157.779H133.497C120.092 157.779 109.221 146.908 109.221 133.503C109.221 120.097 120.092 109.227 133.497 109.227H145.632V86.4856C141.754 85.4851 137.685 84.9568 133.497 84.9568C106.687 84.9568 84.9513 106.692 84.9513 133.503Z" fill="white"/>
</svg>
